<mxfile host="app.diagrams.net" modified="2024-03-26T12:01:01.292Z" agent="Mozilla/5.0 (Windows NT 10.0; Win64; x64) AppleWebKit/537.36 (KHTML, like Gecko) Chrome/123.0.0.0 Safari/537.36" version="24.1.0" etag="zyf6EI32wiMLFs-mouKp" type="github">
  <diagram name="PÃ¡gina-1" id="W1RWWQYk3NytwZQmaJZX">
    <mxGraphModel>
      <root>
        <mxCell id="0" />
        <mxCell id="1" parent="0" />
      </root>
    </mxGraphModel>
  </diagram>
</mxfile>
